<?xml version="1.0" encoding="UTF-8" standalone="no"?>
<svg width="16px" height="16px" viewBox="0 0 16 16" version="1.1" xmlns="http://www.w3.org/2000/svg" xmlns:xlink="http://www.w3.org/1999/xlink" xmlns:sketch="http://www.bohemiancoding.com/sketch/ns">
    <title>icon-calendar</title>
    <desc>Created with Sketch.</desc>
    <defs></defs>
    <g id="Page-1" stroke="none" stroke-width="1" fill="none" fill-rule="evenodd" sketch:type="MSPage">
        <g id="Artboard-1" sketch:type="MSArtboardGroup" transform="translate(-94.000000, -451.000000)" fill="#15ffe0">
            <g id="utility-items" sketch:type="MSLayerGroup" transform="translate(33.000000, 451.000000)">
                <g id="icon-calendar" transform="translate(61.000000, 0.000000)" sketch:type="MSShapeGroup">
                    <g id="Group">
                        <path d="M13.9653333,15.47 L2.01333333,15.47 C0.904,15.47 0,14.5686667 0,13.462 L0,3.52066667 C0,2.41266667 0.903333333,1.51133333 2.014,1.51133333 L13.966,1.51133333 C15.0753333,1.51133333 15.98,2.41266667 15.98,3.52066667 L15.98,13.462 C15.9793333,14.5693333 15.0753333,15.47 13.9653333,15.47 L13.9653333,15.47 Z M1.95866667,2.792 C1.58,2.792 1.272,3.09733333 1.272,3.47333333 L1.272,13.5073333 C1.272,13.8826667 1.58,14.1886667 1.95866667,14.1886667 L14.0226667,14.1886667 C14.4013333,14.1886667 14.7086667,13.8826667 14.7086667,13.5073333 L14.7086667,3.47333333 C14.7086667,3.09733333 14.4013333,2.792 14.0226667,2.792 L1.95866667,2.792 L1.95866667,2.792 Z" id="Shape"></path>
                        <rect id="Rectangle-path" x="2.708" y="5.51133333" width="10.5626667" height="0.625333333"></rect>
                        <rect id="Rectangle-path" x="2.708" y="8.178" width="10.5626667" height="0.625333333"></rect>
                        <rect id="Rectangle-path" x="2.708" y="10.8446667" width="10.5626667" height="0.625333333"></rect>
                        <rect id="Rectangle-path" x="4" y="4.22" width="0.666666667" height="8.58333333"></rect>
                        <rect id="Rectangle-path" x="6.66666667" y="4.22" width="0.666666667" height="8.58333333"></rect>
                        <rect id="Rectangle-path" x="9.33333333" y="4.22" width="0.666666667" height="8.58333333"></rect>
                        <rect id="Rectangle-path" x="12" y="4.22" width="0.666666667" height="8.58333333"></rect>
                        <path d="M5.33333333,0.838 C5.33333333,0.469333333 4.886,0.171333333 4.33333333,0.171333333 C3.78066667,0.171333333 3.33333333,0.469333333 3.33333333,0.838 L3.33333333,2.15733333 L5.33333333,2.15733333 L5.33333333,0.838 L5.33333333,0.838 Z" id="Shape"></path>
                        <path d="M12.6666667,0.838 C12.6666667,0.469333333 12.2193333,0.171333333 11.6666667,0.171333333 C11.114,0.171333333 10.6666667,0.469333333 10.6666667,0.838 L10.6666667,2.15733333 L12.6666667,2.15733333 L12.6666667,0.838 L12.6666667,0.838 Z" id="Shape"></path>
                    </g>
                </g>
            </g>
        </g>
    </g>
</svg>